HIERARCHY
ROOT Hips
{
	OFFSET 11.418242 -1.267926 3.365934
	CHANNELS 6 Xposition Yposition Zposition Zrotation Yrotation Xrotation
	JOINT LHipJoint
	{
		OFFSET 1.854021 6.346283 0.098125
		CHANNELS 3 Zrotation Yrotation Xrotation
		JOINT LeftUpLeg
		{
			OFFSET 3.167964 4.834351 5.007348
			CHANNELS 3 Zrotation Yrotation Xrotation
			JOINT LeftLeg
			{
				OFFSET 5.246431 13.335937 10.854654
				CHANNELS 3 Zrotation Yrotation Xrotation
				JOINT LeftFoot
				{
					OFFSET 8.064254 2.163216 2.503900
					CHANNELS 3 Zrotation Yrotation Xrotation
					JOINT LeftToeBase
					{
						OFFSET 0.509926 -4.459653 -2.190274
						CHANNELS 3 Zrotation Yrotation Xrotation
						End Site
						{
							OFFSET 0.000000 0.000000 0.000000
						}
					}
				}
			}
		}
	}
	JOINT RHipJoint
	{
		OFFSET -11.463161 -1.257820 -6.853973
		CHANNELS 3 Zrotation Yrotation Xrotation
		JOINT RightUpLeg
		{
			OFFSET -3.056963 0.942718 1.157914
			CHANNELS 3 Zrotation Yrotation Xrotation
			JOINT RightLeg
			{
				OFFSET -9.322917 -5.807788 -3.537685
				CHANNELS 3 Zrotation Yrotation Xrotation
				JOINT RightFoot
				{
					OFFSET -12.445263 -15.386311 -2.476572
					CHANNELS 3 Zrotation Yrotation Xrotation
					JOINT RightToeBase
					{
						OFFSET -5.266094 14.892427 -4.467661
						CHANNELS 3 Zrotation Yrotation Xrotation
						End Site
						{
							OFFSET 0.000000 0.000000 0.000000
						}
					}
				}
			}
		}
	}
	JOINT LowerBack
	{
		OFFSET 7.019490 10.842908 1.873415
		CHANNELS 3 Zrotation Yrotation Xrotation
		JOINT Spine
		{
			OFFSET -8.573769 10.622530 38.363789
			CHANNELS 3 Zrotation Yrotation Xrotation
			JOINT Spine1
			{
				OFFSET 41.422096 50.098141 -12.701950
				CHANNELS 3 Zrotation Yrotation Xrotation
				JOINT Neck
				{
					OFFSET 4.594673 60.071445 68.921188
					CHANNELS 3 Zrotation Yrotation Xrotation
					JOINT Neck1
					{
						OFFSET 35.635132 -7.664286 5.426823
						CHANNELS 3 Zrotation Yrotation Xrotation
						JOINT Head
						{
							OFFSET 7.244549 15.481459 17.520088
							CHANNELS 3 Zrotation Yrotation Xrotation
							End Site
							{
								OFFSET 0.000000 0.000000 0.000000
							}
						}
					}
				}
				JOINT LeftShoulder
				{
					OFFSET 5.264051 9.774124 16.013004
					CHANNELS 3 Zrotation Yrotation Xrotation
					JOINT LeftArm
					{
						OFFSET 4.285976 10.801670 25.253536
						CHANNELS 3 Zrotation Yrotation Xrotation
						JOINT LeftForeArm
						{
							OFFSET 17.761814 58.947784 29.587543
							CHANNELS 3 Zrotation Yrotation Xrotation
							JOINT LeftHand
							{
								OFFSET 78.595161 21.958227 -20.020548
								CHANNELS 3 Zrotation Yrotation Xrotation
								JOINT LeftFingerBase
								{
									OFFSET 44.523121 -11.471397 20.012644
									CHANNELS 3 Zrotation Yrotation Xrotation
									JOINT LeftHandIndex1
									{
										OFFSET 14.223366 13.400174 19.607119
										CHANNELS 3 Zrotation Yrotation Xrotation
										End Site
										{
											OFFSET 0.000000 0.000000 0.000000
										}
									}
								}
								JOINT LThumb
								{
									OFFSET 0.426510 -6.607518 8.095010
									CHANNELS 3 Zrotation Yrotation Xrotation
									End Site
									{
										OFFSET 0.000000 0.000000 0.000000
									}
								}
							}
						}
					}
				}
				JOINT RightShoulder
				{
					OFFSET 0.800281 13.162685 13.737450
					CHANNELS 3 Zrotation Yrotation Xrotation
					JOINT RightArm
					{
						OFFSET 5.628707 -0.526012 5.951218
						CHANNELS 3 Zrotation Yrotation Xrotation
						JOINT RightForeArm
						{
							OFFSET 9.481115 16.576937 7.271237
							CHANNELS 3 Zrotation Yrotation Xrotation
							JOINT RightHand
							{
								OFFSET 5.172843 5.505712 4.250364
								CHANNELS 3 Zrotation Yrotation Xrotation
								JOINT RightFingerBase
								{
									OFFSET 64.847321 31.415127 103.103653
									CHANNELS 3 Zrotation Yrotation Xrotation
									JOINT RightHandIndex1
									{
										OFFSET 25.800783 98.644348 43.078087
										CHANNELS 3 Zrotation Yrotation Xrotation
										End Site
										{
											OFFSET 0.000000 0.000000 0.000000
										}
									}
								}
								JOINT RThumb
								{
									OFFSET 44.295513 -75.711609 -17.545515
									CHANNELS 3 Zrotation Yrotation Xrotation
									End Site
									{
										OFFSET -305.443604 -800.309998 615.992859
									}
								}
							}
						}
					}
				}
			}
		}
	}
}
MOTION
Frames: 9
Frame Time: 0.008333
8.782309 19.257864 47.555595 8.250727 13.400997 18.258020 19.028799 11.663783 20.827917 22.323271 39.998833 75.746765 14.571411 28.880188 70.811821 13.641114 27.900419 59.804710 6.807249 1.136400 4.796272 -0.020005 -1.481110 -3.442433 48.152512 38.036125 35.802128 38.941353 13.330619 68.086166 -6.008729 25.257778 29.768307 2.135584 30.624014 101.498009 29.483463 14.132914 36.958614 11.133163 96.066788 95.598701 129.605850 53.337757 -4.994843 21.840670 8.952860 41.220287 35.784973 51.381329 50.535484 13.590168 8.462898 23.796509 15.869226 7.173154 5.599369 -62.902390 -82.768005 123.727524 216.059250 148.210892 122.872742 4.054462 11.942723 235.165344 -2.171751 89.159958 -18.043270 -7.125000 0.000000 0.000000 123.667755 180.505844 207.165787 1.353454 9.812037 -0.364414 82.154648 46.124882 85.172287 31.327660 199.586334 -0.975334 5.749900 -13.768349 273.308472 2908.213135 1886.975586 2378.771729 7.125000 0.000000 0.000000 1123.015381 -25555.552734 -14778.108398
3.827112 17.169701 -28.378143 2.124714 7.450150 3.109085 1.284854 -3.076036 -0.911042 -34.327538 -8.844768 -44.112663 -22.346560 -6.956965 12.766026 11.819810 -8.474071 9.848351 2.451675 -7.877808 20.034901 -7.304539 -6.743141 -16.193026 27.205938 15.834624 -65.777412 20.118629 0.258430 49.080315 -3.071488 4.269474 -30.723993 -5.662071 -16.430424 -10.763620 8.098182 -17.613539 -18.123959 4.885249 43.695427 48.798248 74.376144 -35.794025 -126.415596 -61.966850 -42.468597 -39.982170 13.434655 64.677902 76.027397 11.483698 -0.777309 7.231297 8.674845 -1.298851 -2.167990 -147.108078 -109.821655 171.877548 116.348152 147.392136 171.736343 11.161091 20.269629 135.097092 1.772474 198.295303 101.416306 -7.125000 0.000000 0.000000 22.009571 94.920670 -40.263550 2.461897 19.819784 -0.335279 50.098255 2.902164 -24.536453 -28.331202 130.205048 -105.019012 5.127164 -20.615711 -557.308594 -197.950897 -334.147308 493.133850 7.125000 0.000000 0.000000 -2069.562988 1755.930542 -17975.296875
4.796558 17.758673 21.532927 -2.499688 6.569368 0.230969 -1.481489 -5.371262 2.570024 1.812532 22.060127 3.235584 3.938752 8.561458 48.284248 5.819919 -26.175341 11.207991 0.846703 -19.799074 -6.942822 -7.111998 0.657968 -16.404953 -7.509903 -17.236530 -69.997040 9.223289 4.986200 -33.523342 -11.417188 -18.538849 37.774536 1.451703 -16.430815 -72.299988 -7.165971 5.579535 31.096489 -14.682224 -47.406898 -67.652061 19.376472 -34.989418 -113.367523 -71.593384 -103.837387 -0.298547 -7.178202 14.739429 26.034527 -0.873119 -11.162926 4.356452 -2.205690 10.242644 -3.006670 -124.193939 -65.524071 -37.589752 -64.664474 -0.861492 -20.989706 -5.881652 -16.702488 -466.212860 -39.207966 21.393105 -32.358025 -7.125000 0.000000 0.000000 -120.879051 -19.006622 -264.538300 -21.372747 -7.438962 -1.095133 17.291466 -16.493153 -244.756516 -26.224915 4.700521 -50.019798 3.940704 -9.918809 -951.080750 -1748.582520 -1398.878174 2748.995361 7.125000 0.000000 0.000000 14460.366211 20737.628906 -16399.953125
0.863572 17.315865 28.375126 -6.334417 7.358573 5.923824 17.318720 1.078967 1.500954 -14.450870 -4.535795 -30.243870 4.484446 3.896931 19.025627 -10.688896 -57.625469 14.625217 0.904856 -22.323818 -32.204369 -6.443683 5.797694 -5.051175 57.738647 -5.206432 -129.231522 -6.870168 17.958565 31.350174 12.184668 -19.299067 54.614159 -0.334553 8.288101 -9.940735 10.406175 8.192757 25.786533 -16.615376 -14.441025 3.548155 26.855854 -10.055724 -102.127998 -84.891373 -101.811172 52.417488 -16.647762 7.693302 35.215897 2.504070 -9.525612 5.135561 -21.089109 2.965378 -5.764838 -160.975464 -150.080338 -156.076324 70.540894 209.855759 18.144098 -10.076234 -22.576384 -579.667236 -47.130787 -108.307785 1.221602 -7.125000 0.000000 0.000000 -84.050339 8.387529 -44.991898 7.267256 2.877552 5.289557 82.233391 41.067585 -200.558899 -20.626831 35.300766 77.841629 -8.055450 -30.723658 -574.873230 947.934509 -1934.358521 891.251282 7.125000 0.000000 0.000000 16167.484375 -6798.773438 -12302.728516
1.770977 16.373943 -17.067617 -10.712123 -7.183815 -13.673449 -8.008506 -7.575102 -14.981650 -53.515343 -37.841660 -76.996933 -18.527271 -25.482311 -48.104782 -19.327940 -88.824249 -81.286270 -7.117189 -27.886772 -69.878792 -27.741873 -10.907355 -14.992772 54.273636 11.410259 -49.099747 -26.892384 -28.805500 1.772530 7.699370 -39.712132 25.161936 -8.399386 2.064412 -14.704964 11.120269 -23.942085 -21.200878 -12.274729 -10.857396 18.101645 -84.937927 25.297186 -33.771591 19.753506 17.150673 17.985165 1.174112 28.845848 38.400055 -9.732796 -6.629827 17.585876 2.892899 -0.820239 -5.676037 -111.361732 -3.619341 -88.396690 -198.699036 -160.785141 -369.875061 -7.053773 -36.438633 -309.527527 97.200821 -116.818527 38.911259 -7.125000 0.000000 0.000000 21.582119 -7.273335 -29.667797 -7.456713 -16.304546 1.859091 41.266064 16.566610 -68.785309 -28.799660 -22.129440 -43.098053 -5.449666 -20.224096 -623.875671 -1111.242310 -1207.280273 -563.215942 7.125000 0.000000 0.000000 -16361.818359 -30484.787109 -34063.636719
4.092259 16.765074 5.758210 -5.116931 -4.521243 -7.425891 -14.075455 -4.255362 -3.082125 -9.385344 -18.032036 -28.020493 -0.835438 -0.035216 13.762192 8.604999 66.225174 41.619621 1.899433 7.229650 25.867752 7.461422 4.509022 -1.954349 73.113785 35.729950 66.897171 -20.081322 -27.866753 65.854675 12.899732 -6.646032 64.850510 -6.280441 -7.829529 -72.709183 10.879230 -15.108538 4.105906 -5.129726 -41.183342 9.642319 -102.895294 68.161621 -162.551468 -126.190163 5.906888 -48.616100 -2.659295 -34.757401 15.919631 21.898592 6.924850 11.419361 4.891825 3.270212 2.322611 -89.800392 -84.645882 -369.154846 -361.422913 -85.777161 -83.984421 22.393543 3.227208 -165.403030 -53.644772 -295.506256 3.109844 -7.125000 0.000000 0.000000 150.894897 -7.740196 9.644659 0.512636 -9.685607 2.526146 18.441307 36.418976 -174.757401 -65.698265 9.615305 17.545982 -14.967338 -28.358696 -627.986328 -600.918701 289.682098 908.073242 7.125000 0.000000 0.000000 -13041.054688 -23794.064453 6672.506348
0.648613 17.401735 39.358593 -0.656431 -0.705665 -0.744358 6.169127 -0.993276 1.049838 -9.574288 -29.612757 -41.077873 2.389611 9.461799 -10.897051 -3.777510 0.091672 -6.525939 -3.484850 -17.225843 -59.341587 -18.114729 0.966158 -12.408759 38.359680 -6.406897 -18.712147 -8.323639 -15.398695 28.949596 -0.282736 51.360958 115.456726 6.597007 31.933882 -69.473701 11.334753 9.636557 48.005402 0.242492 -80.714233 -55.438324 -89.950012 102.696892 -152.805191 -6.836733 123.958336 21.920666 35.964725 -22.201069 18.055275 37.405811 -2.831275 -10.694166 -4.219333 17.989876 2.468194 -15.205399 16.856947 -242.192322 -338.306122 -337.043457 -248.269485 10.468104 18.298864 605.115417 199.706802 -125.964386 25.216898 -7.125000 0.000000 0.000000 186.538925 179.557983 184.323715 -9.752374 9.619169 8.194571 72.511765 135.511276 153.839813 76.487465 41.772682 124.764336 4.008334 1.237843 204.940582 2018.483521 538.877197 2069.268555 7.125000 0.000000 0.000000 -4099.937988 -14002.078125 8486.612305
0.500833 17.738342 6.785178 -5.740526 5.402294 8.014423 24.600266 0.094258 1.789331 -6.698328 -5.979280 -37.659019 -8.254082 4.861814 15.931359 4.757029 23.677011 11.928852 -0.795132 -5.518617 -12.722987 -3.849045 4.199772 -4.406204 67.138901 44.191090 31.164078 20.786278 19.898064 82.276764 2.882043 73.306183 85.590050 5.639524 36.531834 -77.961342 -11.435732 -9.211222 2.291921 21.260029 0.561988 37.408806 51.211273 109.839737 -108.818077 -32.925957 7.886796 -32.682297 41.695889 36.905117 55.540554 21.918211 -12.299855 -0.292403 5.723741 20.203159 -2.213375 -39.474323 -149.683670 119.038971 -55.982918 -102.560913 290.209686 14.067780 24.794895 153.950653 106.854691 129.899109 182.293488 -7.125000 0.000000 0.000000 184.231323 204.455490 89.345169 -7.588470 31.216774 10.700317 82.214516 74.968948 192.321106 9.810052 -78.054031 -0.290265 -0.463754 -18.505774 -421.695770 -644.760010 -607.844604 -693.574097 7.125000 0.000000 0.000000 -2328.199463 -1238.202393 13989.237305
7.116364 19.684132 61.197231 11.312202 29.992558 7.277926 18.915293 3.081362 5.598590 -0.974491 10.988199 11.866625 -2.320745 9.133432 27.932461 -11.558449 -33.903969 -61.858528 -6.439774 -21.756483 -57.898277 -17.338108 -7.814580 -26.500700 -34.365967 -30.330181 -77.218887 4.670825 -0.063011 93.114342 -1.411301 -34.098171 -61.362560 -6.569221 -32.932590 -19.965763 16.176674 2.125942 -0.894305 -21.790493 -101.804970 -44.013153 50.668434 49.395058 114.734428 -10.450625 -77.187691 -44.498447 -30.292744 -46.910683 19.548836 7.161053 3.778436 -2.631201 -18.533255 -5.123264 2.862614 -37.448139 -97.342468 -56.762184 -577.638794 -271.975861 123.342186 -13.853304 42.522133 22.215384 75.298401 -39.628696 -209.822769 -7.125000 0.000000 0.000000 175.143570 195.490524 70.962708 -2.511845 -5.240565 -5.271136 56.725159 -19.160444 6.534929 0.615168 118.315689 105.501457 7.399686 -17.054743 -835.254028 -257.438385 -966.401550 -0.731900 7.125000 0.000000 0.000000 -8801.677734 -27020.173828 42487.093750
